<svg width="60" height="60" viewBox="0 0 60 60" fill="none" xmlns="http://www.w3.org/2000/svg">
<path d="M30 7.71429C33 7.71429 35.9143 8.31429 38.6571 9.50357C41.3143 10.65 43.6929 12.3 45.7393 14.4C47.7857 16.5 49.4036 18.9536 50.5286 21.675C51.6964 24.5036 52.2857 27.5036 52.2857 30.6C52.2857 35.5071 50.7964 40.1893 47.9786 44.1321C46.6286 46.0286 45 47.6893 43.1571 49.0821C41.4643 50.3571 39.6214 51.3643 37.6714 52.1036C37.6714 51.9 37.6714 51.6643 37.6714 51.4071C37.6821 50.1321 37.6929 48.2143 37.6929 46.0071C37.6929 44.6786 37.4786 43.5964 37.1679 42.7393C41.1536 41.85 47.025 39.1286 47.025 29.3036C47.025 26.6679 46.2643 24.3214 44.7536 22.3286C45.0857 20.9464 45.3429 18.5143 44.2071 15.5786L43.9179 14.8179L43.1464 14.5607C42.9857 14.5071 42.6321 14.4214 42.075 14.4214C40.8429 14.4214 38.7643 14.8393 35.7 16.8429C33.8786 16.3929 31.9714 16.1357 30.0107 16.1357H30H29.9893C28.0286 16.1357 26.1107 16.3929 24.3 16.8429C21.2357 14.8393 19.1571 14.4107 17.925 14.4107C17.3679 14.4107 17.0143 14.5071 16.8536 14.5607L16.0821 14.8179L15.7929 15.5786C14.6571 18.525 14.9143 20.9571 15.2464 22.3286C13.7357 24.3321 12.975 26.6786 12.975 29.3036C12.975 34.6179 14.6893 37.8643 16.8964 39.8571C16.0286 39.15 14.9036 38.5607 13.5536 38.4643H13.5H13.4464H13.4143C12.0107 38.4643 11.025 39.0429 10.7143 40.0393C10.2107 41.625 11.7643 42.7179 12.2786 43.0821L12.3321 43.1464L12.4929 43.2107C12.6643 43.3179 13.575 43.9607 14.3036 45.8357C14.5179 46.5 14.9786 47.3893 15.7607 48.2143C14.3571 47.0143 13.1036 45.6429 12.0214 44.1321C9.20357 40.2 7.71429 35.5179 7.71429 30.6107C7.71429 27.5143 8.30357 24.5143 9.47143 21.6857C10.5964 18.9536 12.2036 16.5107 14.2607 14.4107C16.3071 12.3107 18.6964 10.6607 21.3429 9.51429C24.0857 8.325 27 7.71429 30 7.71429ZM17.2179 40.1464C19.0179 41.6571 21.1071 42.3857 22.8214 42.7714C22.7357 43.0071 22.6607 43.2536 22.5964 43.5107C22.2321 43.6179 21.7929 43.7036 21.3429 43.7036C20.175 43.7036 19.3071 43.125 18.6 41.8929C18.3429 41.4 17.8714 40.7464 17.2179 40.1464ZM17.6143 49.6393C18.6643 50.2071 19.9821 50.5821 21.6 50.5821C21.8357 50.5821 22.0714 50.5714 22.3179 50.5607C22.3179 50.8607 22.3179 51.15 22.3286 51.4071C22.3286 51.6643 22.3286 51.9 22.3393 52.1036C20.6679 51.4821 19.0929 50.6571 17.6143 49.6393ZM30 6C16.7464 6 6 17.025 6 30.6107C6 41.4857 12.8786 50.7 22.4143 53.9571C22.5643 53.9893 22.6929 54 22.8214 54C23.7107 54 24.0536 53.3464 24.0536 52.7786C24.0536 52.1893 24.0321 50.6464 24.0214 48.5893C23.1214 48.7929 22.3179 48.8786 21.6 48.8786C16.9821 48.8786 15.9321 45.2893 15.9321 45.2893C14.8393 42.45 13.2643 41.6679 13.2643 41.6679C11.175 40.2 13.2536 40.1464 13.4143 40.1464C13.425 40.1464 13.425 40.1464 13.425 40.1464C15.8357 40.3607 17.1 42.7071 17.1 42.7071C18.3 44.8071 19.9071 45.4071 21.3429 45.4071C22.4679 45.4071 23.4857 45.0429 24.0857 44.7643C24.3 43.1786 24.9214 42.0964 25.6071 41.475C20.2821 40.8536 14.6786 38.7429 14.6786 29.3143C14.6786 26.625 15.6107 24.4286 17.1429 22.7143C16.8964 22.0929 16.0714 19.5857 17.3786 16.2C17.3786 16.2 17.55 16.1464 17.9143 16.1464C18.7821 16.1464 20.7429 16.4786 23.9786 18.7286C25.8964 18.1821 27.9429 17.9143 29.9893 17.9036C32.025 17.9143 34.0821 18.1821 36 18.7286C39.2357 16.4786 41.1964 16.1464 42.0643 16.1464C42.4286 16.1464 42.6 16.2 42.6 16.2C43.9071 19.5857 43.0821 22.0929 42.8357 22.7143C44.3679 24.4393 45.3 26.6357 45.3 29.3143C45.3 38.7643 39.6857 40.8429 34.3393 41.4536C35.1964 42.2143 35.9679 43.7143 35.9679 46.0071C35.9679 49.2964 35.9357 51.9536 35.9357 52.7571C35.9357 53.3357 36.2679 53.9893 37.1571 53.9893C37.2857 53.9893 37.4357 53.9786 37.5857 53.9464C47.1321 50.7 54 41.475 54 30.6107C54 17.025 43.2536 6 30 6Z" fill="white"/>
</svg>
