<svg width="60" height="60" viewBox="0 0 60 60" fill="none" xmlns="http://www.w3.org/2000/svg">
<path d="M30 6C16.7451 6 6 16.9157 6 30.3808C6 41.7515 13.6624 51.3035 24.0277 54C24.0208 51.1824 24.0117 47.7264 24.0064 46.6496C17.0805 48.1797 15.6192 43.6656 15.6192 43.6656C14.4869 40.7424 12.8549 39.9648 12.8549 39.9648C10.5957 38.3952 13.0251 38.4272 13.0251 38.4272C15.5248 38.6053 16.8416 41.0336 16.8416 41.0336C19.0619 44.8997 22.6656 43.7819 24.0864 43.136C24.3099 41.5019 24.9547 40.3856 25.6672 39.7541C20.1376 39.1147 14.3243 36.9461 14.3243 27.2555C14.3243 24.4944 15.2971 22.2384 16.8896 20.4672C16.6309 19.8299 15.7787 17.2576 17.1307 13.7739C17.1307 13.7739 19.2213 13.0944 23.9787 16.3664C25.9648 15.8059 28.0944 15.5248 30.2101 15.5152C32.3259 15.5248 34.4571 15.8059 36.4469 16.3664C41.1989 13.0944 43.2864 13.7739 43.2864 13.7739C44.6416 17.2576 43.7893 19.8299 43.5307 20.4672C45.1269 22.2384 46.0928 24.4944 46.0928 27.2555C46.0928 36.9696 40.2688 39.1077 34.7248 39.7344C35.6176 40.5195 36.4133 42.0581 36.4133 44.4176C36.4133 46.2912 36.4048 50.6048 36.3968 53.8789C46.5445 51.0341 54 41.5947 54 30.3808C54 16.9157 43.2549 6 30 6Z" fill="white"/>
</svg>
