<svg width="60" height="60" viewBox="0 0 60 60" fill="none" xmlns="http://www.w3.org/2000/svg">
<path d="M15.2708 24.1667H14.7708V24.6667V43.3333V43.8333H15.2708H22H22.5V43.3333V24.6667V24.1667H22H15.2708ZM27.5521 24.1667H27.0521V24.6667V43.3333V43.8333H27.5521H34.2812H34.7812V43.3333V33.1302C34.7812 31.746 35.2667 31.0305 35.7547 30.6476C36.2683 30.2447 36.8548 30.1562 37.099 30.1562C37.2921 30.1562 37.7625 30.267 38.1849 30.689C38.592 31.0957 38.9896 31.8289 38.9896 33.1302V43.3333V43.8333H39.4896H46H46.5V43.3333V33.1302C46.5 30.1345 45.8353 27.8976 44.6885 26.3977C43.5303 24.883 41.9147 24.1667 40.1406 24.1667C37.618 24.1667 35.8988 24.8003 34.7812 25.8397V24.6667V24.1667H34.2812H27.5521ZM11.3333 5.5C8.11052 5.5 5.5 8.11052 5.5 11.3333V48.6667C5.5 51.8895 8.11052 54.5 11.3333 54.5H48.6667C51.8895 54.5 54.5 51.8895 54.5 48.6667V11.3333C54.5 8.11052 51.8895 5.5 48.6667 5.5H11.3333ZM11.8333 11.8333H48.1667V48.1667H11.8333V11.8333ZM18.7448 14.3438C17.502 14.3438 16.4601 14.7186 15.7231 15.3896C14.9832 16.0632 14.5885 17.0017 14.5885 18.0469C14.5885 19.0909 14.9821 20.0238 15.6864 20.694C16.3897 21.3634 17.3748 21.7448 18.5156 21.7448C19.7579 21.7448 20.7997 21.3716 21.5369 20.7019C22.2771 20.0296 22.6719 19.0921 22.6719 18.0469C22.6719 17.0029 22.2784 16.069 21.5744 15.3975C20.8713 14.7268 19.8862 14.3438 18.7448 14.3438Z" stroke="white"/>
</svg>
