<svg width="60" height="60" viewBox="0 0 60 60" fill="none" xmlns="http://www.w3.org/2000/svg">
<path d="M11.3333 6C8.38667 6 6 8.38667 6 11.3333V48.6667C6 51.6133 8.38667 54 11.3333 54H48.6667C51.6133 54 54 51.6133 54 48.6667V11.3333C54 8.38667 51.6133 6 48.6667 6H11.3333ZM11.3333 11.3333H48.6667V48.6667H11.3333V11.3333ZM18.7448 14.8438C16.4595 14.8438 15.0885 16.2175 15.0885 18.0469C15.0885 19.8762 16.4596 21.2448 18.5156 21.2448C20.801 21.2448 22.1719 19.8762 22.1719 18.0469C22.1719 16.2175 20.8008 14.8438 18.7448 14.8438ZM15.2708 24.6667V43.3333H22V24.6667H15.2708ZM27.5521 24.6667V43.3333H34.2813V33.1302C34.2813 30.0929 36.4483 29.6563 37.099 29.6563C37.7496 29.6563 39.4896 30.3089 39.4896 33.1302V43.3333H46V33.1302C46 27.2715 43.3966 24.6667 40.1406 24.6667C36.8846 24.6667 35.1479 25.7508 34.2813 27.2708V24.6667H27.5521Z" fill="white"/>
</svg>
