<svg width="60" height="60" viewBox="0 0 60 60" fill="none" xmlns="http://www.w3.org/2000/svg">
<path d="M14.7 44C13.98 44 13.35 43.7375 12.81 43.2125C12.27 42.6875 12 42.075 12 41.375V18.625C12 17.925 12.27 17.3125 12.81 16.7875C13.35 16.2625 13.98 16 14.7 16H45.3C46.02 16 46.65 16.2625 47.19 16.7875C47.73 17.3125 48 17.925 48 18.625V41.375C48 42.075 47.73 42.6875 47.19 43.2125C46.65 43.7375 46.02 44 45.3 44H14.7ZM30 30.7875L14.7 21.0312V41.375H45.3V21.0312L30 30.7875ZM30 28.1625L45.12 18.625H14.925L30 28.1625ZM14.7 21.0312V18.625V41.375V21.0312Z" fill="white"/>
</svg>
