<svg width="60" height="60" viewBox="0 0 60 60" fill="none" xmlns="http://www.w3.org/2000/svg">
<g clip-path="url(#clip0_107_36)">
<path d="M44 46C40.3852 46 36.7926 45.1111 33.2222 43.3333C29.6519 41.5556 26.4444 39.2444 23.6 36.4C20.7556 33.5556 18.4444 30.3481 16.6667 26.7778C14.8889 23.2074 14 19.6148 14 16C14 15.437 14.1926 14.963 14.5778 14.5778C14.963 14.1926 15.437 14 16 14H22.2222C22.637 14 23 14.1407 23.3111 14.4222C23.6222 14.7037 23.8222 15.0815 23.9111 15.5556L25.1111 21.1556C25.1704 21.5704 25.163 21.9481 25.0889 22.2889C25.0148 22.6296 24.8593 22.9185 24.6222 23.1556L20.1778 27.6444C21.837 30.4 23.6963 32.8 25.7556 34.8444C27.8148 36.8889 30.1481 38.6222 32.7556 40.0444L36.9778 35.6889C37.2741 35.363 37.6148 35.1333 38 35C38.3852 34.8667 38.7704 34.8444 39.1556 34.9333L44.4444 36.0889C44.8889 36.1778 45.2593 36.4 45.5556 36.7556C45.8519 37.1111 46 37.5259 46 38V44C46 44.563 45.8074 45.037 45.4222 45.4222C45.037 45.8074 44.563 46 44 46ZM18.8444 25.2L22.4444 21.5556L21.4222 16.6667H16.6667C16.6667 17.8222 16.8444 19.0889 17.2 20.4667C17.5556 21.8444 18.1037 23.4222 18.8444 25.2ZM35.2444 41.3333C36.4593 41.8963 37.7778 42.3556 39.2 42.7111C40.6222 43.0667 42 43.2741 43.3333 43.3333V38.5778L38.7556 37.6444L35.2444 41.3333Z" fill="white"/>
</g>
<defs>
<clipPath id="clip0_107_36">
<rect width="32" height="32" fill="white" transform="translate(14 14)"/>
</clipPath>
</defs>
</svg>
