<svg width="60" height="60" viewBox="0 0 60 60" fill="none" xmlns="http://www.w3.org/2000/svg">
<path d="M38.7807 13.5546L38.8074 13.5083L38.8238 13.4574C38.9241 13.1455 39.0765 12.9686 39.2001 12.8715C39.2979 12.7945 39.3711 12.7711 39.3935 12.764C39.4032 12.7609 39.4032 12.7609 39.3913 12.7609H44.5946C44.6006 12.7633 44.6131 12.7691 44.632 12.7819C44.6739 12.8102 44.7226 12.8572 44.7639 12.917C44.8056 12.9773 44.8273 13.0325 44.8347 13.0698C44.8363 13.0778 44.837 13.0838 44.8373 13.088L33.6762 32.8362C33.5468 32.9866 33.4375 33.1862 33.4375 33.4321C33.4375 33.6784 33.5473 33.8783 33.6769 34.0287L41.0366 46.9306C41.0749 47.0096 41.0774 47.05 41.0769 47.062C41.0731 47.0675 41.0628 47.0794 41.038 47.0968C40.9875 47.1322 40.9031 47.1701 40.786 47.1984C40.6719 47.2259 40.5477 47.2391 40.4348 47.2391H35.226C35.1663 47.2367 35.1256 47.2247 35.0515 47.149C34.9471 47.0423 34.8158 46.8433 34.6168 46.4636L34.6134 46.457L34.6097 46.4506L27.3217 33.4886L27.2895 33.4313L27.3187 33.3807L38.7807 13.5546ZM41.0788 47.0586C41.0789 47.0585 41.0787 47.0592 41.0778 47.0606C41.0783 47.0593 41.0787 47.0586 41.0788 47.0586ZM14.8351 37.2831L14.8367 37.2802L20.897 26.4942C21.0281 26.3457 21.1372 26.1473 21.1372 25.902C21.1372 25.6582 21.0292 25.459 20.9022 25.3085L17.3293 18.765C17.1817 18.4759 17.0948 18.2614 17.0502 18.1058C17.0352 18.0534 17.0264 18.0123 17.0212 17.9809C17.0424 17.9793 17.0682 17.9783 17.0992 17.9783H22.6867C22.8546 17.9849 22.9074 18.0307 22.9599 18.0956C23.0416 18.1968 23.1044 18.3347 23.2167 18.5813C23.2375 18.6271 23.2601 18.6767 23.2848 18.7305L23.2942 18.7509L23.3053 18.7703L27.4792 26.0543L27.5073 26.1033L27.4794 26.1518L21.2186 37.0554L21.2012 37.0856L21.1882 37.118C21.0977 37.3435 20.977 37.5399 20.8504 37.6745C20.7286 37.8039 20.6365 37.8409 20.5866 37.8478H15.3954C14.9506 37.8402 14.8065 37.7056 14.7732 37.6561C14.7503 37.6218 14.7046 37.5119 14.8351 37.2831ZM6.5 10.4062C6.5 8.2775 8.2775 6.5 10.4062 6.5H49.6019C51.7219 6.5 53.5 8.2769 53.5 10.4062V49.6019C53.5 51.7225 51.7225 53.5 49.6019 53.5H10.4062C8.2769 53.5 6.5 51.7219 6.5 49.6019V10.4062ZM49.6141 7.58696H10.3859C8.84206 7.58696 7.58696 8.84206 7.58696 10.3859V49.6141C7.58696 51.1579 8.84206 52.413 10.3859 52.413H49.6141C51.1579 52.413 52.413 51.1579 52.413 49.6141V10.3859C52.413 8.84206 51.1579 7.58696 49.6141 7.58696Z" fill="white" stroke="white"/>
</svg>
