<svg width="60" height="60" viewBox="0 0 60 60" fill="none" xmlns="http://www.w3.org/2000/svg">
<path d="M35.2022 48.2389L35.2098 48.2391H35.2174H40.4348C40.7817 48.2391 41.2578 48.1638 41.6118 47.9158C41.7998 47.7841 41.978 47.5848 42.0476 47.3039C42.1171 47.0233 42.0591 46.738 41.925 46.4711L41.9191 46.4593L41.9126 46.4479L34.5185 33.486L34.4878 33.4321L34.4878 33.4321L34.4885 33.4313L34.5195 33.3764L45.7247 13.5504L45.7299 13.5411L45.7348 13.5316C45.9607 13.0888 45.774 12.6198 45.5867 12.3486C45.4823 12.1975 45.3475 12.0585 45.1924 11.9536C45.0412 11.8513 44.8393 11.7609 44.6087 11.7609H39.3913C38.9491 11.7609 38.2169 12.1484 37.8896 13.098L26.4819 32.8302C26.3489 32.9791 26.233 33.1806 26.233 33.4321C26.233 33.6821 26.3476 33.8827 26.4797 34.0314L33.7345 46.9343C33.9337 47.3139 34.1214 47.6282 34.3367 47.8483C34.581 48.098 34.8621 48.2286 35.2022 48.2389ZM16.4421 19.2264L16.4419 19.2265L16.4484 19.2383L20.0516 25.8374L20.0824 25.8938L20.0855 25.8971L20.0546 25.9521L13.9665 36.7875C13.9662 36.788 13.966 36.7885 13.9657 36.7891C13.7178 37.2244 13.64 37.7618 13.9428 38.2132C14.2356 38.6496 14.7756 38.8384 15.3836 38.8478L15.3836 38.8478H15.3913H20.6087H20.6249L20.641 38.8468C21.0343 38.8213 21.3516 38.6011 21.5786 38.3598C21.8014 38.1231 21.9776 37.8255 22.1024 37.5243L28.3198 26.6965C28.4493 26.5465 28.5598 26.3464 28.5598 26.1002C28.5598 25.8541 28.4496 25.6552 28.318 25.5067L24.1843 18.2929C24.1697 18.2609 24.1548 18.2278 24.1396 18.1939C24.0323 17.9553 23.9073 17.677 23.7378 17.4672C23.4955 17.1673 23.1659 16.9933 22.7119 16.9785L22.7038 16.9783H22.6957H17.0992C16.9185 16.9783 16.7013 16.9979 16.5041 17.0923C16.2789 17.2 16.1076 17.3928 16.0426 17.6604C15.9855 17.8957 16.0213 18.1454 16.0889 18.3812C16.1586 18.6246 16.2777 18.905 16.4421 19.2264ZM10.4062 5.5C7.72522 5.5 5.5 7.72522 5.5 10.4062V49.6019C5.5 52.2754 7.72582 54.5 10.4062 54.5H49.6019C52.2748 54.5 54.5 52.2748 54.5 49.6019V10.4062C54.5 7.72582 52.2754 5.5 49.6019 5.5H10.4062ZM10.3859 8.58696H49.6141C50.6057 8.58696 51.413 9.39435 51.413 10.3859V49.6141C51.413 50.6057 50.6057 51.413 49.6141 51.413H10.3859C9.39435 51.413 8.58696 50.6057 8.58696 49.6141V10.3859C8.58696 9.39435 9.39435 8.58696 10.3859 8.58696Z" stroke="white"/>
</svg>
